<svg fill="none" height="16" viewBox="0 0 16 16" width="16" xmlns="http://www.w3.org/2000/svg"><path d="m9.87047 1.625-.8986 3.59437-.06328-.01265-.36703-1.25297c-.49359-1.80984-.81-2.10094-2.21484-2.10094h-.12656l-1.0125 4.03735h.21515c.67078 0 1.20235-.22782 2.41735-1.89844h.08859l-.99984 4.03734-.0886-.02531c-.39234-1.55672-.78468-1.88578-1.45547-1.88578h-.22781l-.82266 3.29062.45563.68341v.076h-3.645v-.076l.83531-.68341 1.74656-7.04953-.56953-.65812v-.07594zm1.86563 3.975c.8227 0 1.5441.21516 2.0123.55688l.9366-.53157h.0759l-.9112 3.55641h-.0633c-.8606-1.88578-2.2655-3.02484-3.4045-3.02484-.46831 0-.77206.18984-.84799.48093-.13922.55688.59489 1.25297 1.64529 1.99969l1.215.88594c.9872.69606 1.4681 1.41746 1.1897 2.50596-.3037 1.2529-1.62 2.43-3.70828 2.43-1.17703 0-2.07562-.3671-3.10078-.5316l.73407-3.8222.07593.0127c.87329 2.9742 2.97426 3.6956 3.84746 3.6956.5569 0 .7847-.2278.81-.5569.0507-.5568-.5821-1.1643-1.5567-1.8731l-1.17701-.8986c-.98718-.73405-1.44281-1.49342-1.15172-2.6578.405-1.65797 1.89843-2.2275 3.37923-2.2275z" fill="#222"/></svg>